<svg width="31" height="31" viewBox="0 0 31 31" fill="none" xmlns="http://www.w3.org/2000/svg">
<g id="ic_star">
<path id="Vector (Stroke)" fill-rule="evenodd" clip-rule="evenodd" d="M15.0371 5.63892C15.3949 5.63892 15.7216 5.84203 15.8799 6.16285L18.2746 11.0157L23.6306 11.7939C23.9847 11.8453 24.2788 12.0933 24.3893 12.4335C24.4999 12.7737 24.4077 13.1472 24.1515 13.3969L20.2762 17.1743L21.191 22.508C21.2515 22.8606 21.1066 23.2169 20.8172 23.4272C20.5278 23.6375 20.1441 23.6652 19.8274 23.4988L15.0371 20.9805L10.2468 23.4988C9.93019 23.6652 9.5465 23.6375 9.25709 23.4272C8.96768 23.2169 8.82275 22.8606 8.88323 22.508L9.79812 17.1743L5.92277 13.3969C5.66659 13.1472 5.57439 12.7737 5.68494 12.4335C5.79549 12.0933 6.08961 11.8453 6.44363 11.7939L11.7996 11.0157L14.1943 6.16285C14.3527 5.84203 14.6794 5.63892 15.0371 5.63892Z" fill="#FFC55C"/>
</g>
</svg>
