<svg width="25" height="25" viewBox="0 0 25 25" fill="none" xmlns="http://www.w3.org/2000/svg">
<path fill-rule="evenodd" clip-rule="evenodd" d="M7.85673 2.72363H16.9882C20.3159 2.72363 22.2146 4.60278 22.2146 7.94023V17.0815C22.2146 20.3994 20.3257 22.2981 16.998 22.2981H7.85673C4.51929 22.2981 2.64014 20.3994 2.64014 17.0815V7.94023C2.64014 4.60278 4.51929 2.72363 7.85673 2.72363ZM13.2299 13.323H16.0095C16.4597 13.3132 16.8218 12.9511 16.8218 12.5008C16.8218 12.0506 16.4597 11.6885 16.0095 11.6885H13.2299V8.92851C13.2299 8.4783 12.8678 8.11617 12.4176 8.11617C11.9674 8.11617 11.6052 8.4783 11.6052 8.92851V11.6885H8.83546C8.62014 11.6885 8.41461 11.7766 8.25801 11.9234C8.1112 12.08 8.02312 12.2846 8.02312 12.5008C8.02312 12.9511 8.38524 13.3132 8.83546 13.323H11.6052V16.0928C11.6052 16.543 11.9674 16.9051 12.4176 16.9051C12.8678 16.9051 13.2299 16.543 13.2299 16.0928V13.323Z" fill="#F8F8FA"/>
</svg>
