<svg width="19" height="21" viewBox="0 0 19 21" fill="none" xmlns="http://www.w3.org/2000/svg">
<g id="Delete">
<path id="Stroke 1" d="M16.7086 8.08398C16.7086 8.08398 16.1656 14.819 15.8506 17.656C15.7006 19.011 14.8636 19.805 13.4926 19.83C10.8836 19.877 8.27158 19.88 5.66358 19.825C4.34458 19.798 3.52158 18.994 3.37458 17.663C3.05758 14.801 2.51758 8.08398 2.51758 8.08398" stroke="#EB5757" stroke-width="1.5" stroke-linecap="round" stroke-linejoin="round"/>
<path id="Stroke 3" d="M18.0918 4.85547H1.13379" stroke="#EB5757" stroke-width="1.5" stroke-linecap="round" stroke-linejoin="round"/>
<path id="Stroke 5" d="M14.8244 4.85521C14.0394 4.85521 13.3634 4.30021 13.2094 3.53121L12.9664 2.31521C12.8164 1.75421 12.3084 1.36621 11.7294 1.36621H7.49637C6.91737 1.36621 6.40937 1.75421 6.25937 2.31521L6.01637 3.53121C5.86237 4.30021 5.18637 4.85521 4.40137 4.85521" stroke="#EB5757" stroke-width="1.5" stroke-linecap="round" stroke-linejoin="round"/>
</g>
</svg>
