<svg width="24" height="24" viewBox="0 0 24 24" fill="none" xmlns="http://www.w3.org/2000/svg">
<g id="Info Square">
<path id="Info Square_2" fill-rule="evenodd" clip-rule="evenodd" d="M6.94801 0.332031H17.063C21.018 0.332031 23.6663 3.1087 23.6663 7.2387V16.7715C23.6663 20.8899 21.018 23.6654 17.063 23.6654H6.94801C2.99301 23.6654 0.333008 20.8899 0.333008 16.7715V7.2387C0.333008 3.1087 2.99301 0.332031 6.94801 0.332031ZM11.988 8.56986C11.4397 8.56986 10.9847 8.1137 10.9847 7.55486C10.9847 6.9832 11.4397 6.5282 12.0113 6.5282C12.5713 6.5282 13.0263 6.9832 13.0263 7.55486C13.0263 8.1137 12.5713 8.56986 11.988 8.56986ZM13.0147 16.4099C13.0147 16.9699 12.5597 17.4249 11.988 17.4249C11.428 17.4249 10.973 16.9699 10.973 16.4099V11.2532C10.973 10.692 11.428 10.2265 11.988 10.2265C12.5597 10.2265 13.0147 10.692 13.0147 11.2532V16.4099Z" fill="#7AAC5C"/>
</g>
</svg>
