<svg width="21" height="20" viewBox="0 0 21 20" fill="none" xmlns="http://www.w3.org/2000/svg">
<path fill-rule="evenodd" clip-rule="evenodd" d="M13.5 10C13.5 11.6569 12.1569 13 10.5 13C8.84315 13 7.5 11.6569 7.5 10C7.5 8.34315 8.84315 7 10.5 7C12.1569 7 13.5 8.34315 13.5 10ZM12 10C12 10.8284 11.3284 11.5 10.5 11.5C9.67157 11.5 9 10.8284 9 10C9 9.17157 9.67157 8.5 10.5 8.5C11.3284 8.5 12 9.17157 12 10Z" fill="#FF5544"/>
<path fill-rule="evenodd" clip-rule="evenodd" d="M19.5 10C19.5 13.5 14.5 16 10.5 16C6.5 16 1.5 13.5 1.5 10C1.5 6.5 6.5 4 10.5 4C14.5 4 19.5 6.5 19.5 10ZM18 10C18 10.9827 17.2806 12.0838 15.7215 13.0303C14.2054 13.9508 12.2245 14.5 10.5 14.5C8.77549 14.5 6.79462 13.9508 5.27847 13.0303C3.71944 12.0838 3 10.9827 3 10C3 9.01731 3.71944 7.91623 5.27847 6.96968C6.79462 6.04916 8.77549 5.5 10.5 5.5C12.2245 5.5 14.2054 6.04916 15.7215 6.96968C17.2806 7.91623 18 9.01731 18 10Z" fill="#FF5544"/>
</svg>
