<svg width="18" height="21" viewBox="0 0 18 21" fill="none" xmlns="http://www.w3.org/2000/svg">
<path fill-rule="evenodd" clip-rule="evenodd" d="M0.338623 2.00785C0.338623 1.47534 0.550164 0.964631 0.926709 0.588086C1.30325 0.211541 1.81396 0 2.34647 0L13.3321 0L17.74 4.4079V18.0707C17.74 18.6032 17.5285 19.1139 17.1519 19.4904C16.7754 19.867 16.2647 20.0785 15.7322 20.0785H2.34647C1.81396 20.0785 1.30325 19.867 0.926709 19.4904C0.550164 19.1139 0.338623 18.6032 0.338623 18.0707V2.00785ZM4.35433 9.36997H1.67719V8.0314H5.69289V14.7242H1.67719V12.0471H3.01576V13.3857H4.35433V9.36997ZM7.03146 8.0314H9.03931C9.57183 8.0314 10.0825 8.24295 10.4591 8.61949C10.8356 8.99604 11.0472 9.50674 11.0472 10.0393C11.0472 10.5718 10.8356 11.0825 10.4591 11.459C10.0825 11.8356 9.57183 12.0471 9.03931 12.0471H8.37003V14.7242H7.03146V8.0314ZM12.3857 8.0314H16.4014V9.36997H13.7243V13.3857H15.0629V11.3778H16.4014V14.7242H12.3857V8.0314Z" fill="#7AAC5C"/>
</svg>
