<svg width="18" height="18" viewBox="0 0 18 18" fill="none" xmlns="http://www.w3.org/2000/svg">
<path d="M10.3877 3.1875V5.0025" stroke="#7aac5c" stroke-width="1.22727" stroke-linecap="round" stroke-linejoin="round"/>
<path d="M10.3877 13.3203V14.8383" stroke="#7aac5c" stroke-width="1.22727" stroke-linecap="round" stroke-linejoin="round"/>
<path d="M10.3877 10.7427V7.12695" stroke="#7aac5c" stroke-width="1.22727" stroke-linecap="round" stroke-linejoin="round"/>
<path fill-rule="evenodd" clip-rule="evenodd" d="M14.0271 15.001C15.3936 15.001 16.5005 13.9079 16.5005 12.5583V10.614C15.5962 10.614 14.868 9.89476 14.868 9.00175C14.868 8.10874 15.5962 7.38877 16.5005 7.38877L16.4997 5.44362C16.4997 4.09406 15.3921 3.00098 14.0263 3.00098H3.97467C2.6089 3.00098 1.50127 4.09406 1.50127 5.44362L1.50049 7.45212C2.40474 7.45212 3.133 8.10874 3.133 9.00175C3.133 9.89476 2.40474 10.614 1.50049 10.614V12.5583C1.50049 13.9079 2.60734 15.001 3.97389 15.001H14.0271Z" stroke="#7aac5c" stroke-width="1.22727" stroke-linecap="round" stroke-linejoin="round"/>
</svg>
