<svg width="52" height="52" viewBox="0 0 52 52" fill="none" xmlns="http://www.w3.org/2000/svg">
<path fill-rule="evenodd" clip-rule="evenodd" d="M30.2155 27.9288C30.8376 28.5572 31.8458 28.5572 32.468 27.9288C33.1115 27.3005 33.1115 26.2822 32.4894 25.6538L26.3326 19.4138C26.1825 19.2622 26.0109 19.1538 25.8178 19.0672C25.6247 18.9805 25.4317 18.9372 25.2171 18.9372C25.0026 18.9372 24.7881 18.9805 24.595 19.0672C24.402 19.1538 24.2303 19.2622 24.0802 19.4138L17.9449 25.6538C17.3227 26.2822 17.3227 27.3005 17.9449 27.9288C18.567 28.5572 19.5752 28.5572 20.1973 27.9288L23.6082 24.4622V34.9272C23.6082 35.8155 24.3161 36.5305 25.2171 36.5305C26.0967 36.5305 26.8046 35.8155 26.8046 34.9272V24.4622L30.2155 27.9288ZM41.8776 19.5557C42.3819 19.5498 42.9309 19.5435 43.4298 19.5435C43.9661 19.5435 44.4166 19.9768 44.4166 20.5185V37.9385C44.4166 43.3118 40.0833 47.6668 34.7631 47.6668H17.7087C12.1097 47.6668 7.58325 43.0952 7.58325 37.4618V14.1052C7.58325 8.73183 11.8951 4.3335 17.2582 4.3335H28.7136C29.2499 4.3335 29.7004 4.7885 29.7004 5.33016V12.3068C29.7004 16.2718 32.9182 19.5218 36.8654 19.5435C37.7677 19.5435 38.5688 19.5503 39.2725 19.5563C39.8235 19.561 40.3149 19.5652 40.7483 19.5652C41.0536 19.5652 41.4495 19.5606 41.8776 19.5557ZM42.4768 16.3925C40.7134 16.399 38.6369 16.3925 37.1416 16.3773C34.769 16.3773 32.8147 14.4035 32.8147 12.0072V6.29582C32.8147 5.36199 33.9345 4.89832 34.576 5.57216C36.228 7.30545 38.7569 9.96176 40.8944 12.2069C41.7602 13.1163 42.5617 13.9582 43.2147 14.644C43.839 15.3005 43.3799 16.3903 42.4768 16.3925Z" fill="#B3B3B3"/>
</svg>
