<svg width="29" height="28" viewBox="0 0 29 28" fill="none" xmlns="http://www.w3.org/2000/svg">
<path fill-rule="evenodd" clip-rule="evenodd" d="M9.44801 2.33203H19.563C23.518 2.33203 26.1663 5.1087 26.1663 9.2387V18.7715C26.1663 22.8899 23.518 25.6654 19.563 25.6654H9.44801C5.49301 25.6654 2.83301 22.8899 2.83301 18.7715V9.2387C2.83301 5.1087 5.49301 2.33203 9.44801 2.33203ZM14.488 10.5699C13.9397 10.5699 13.4847 10.1137 13.4847 9.55486C13.4847 8.9832 13.9397 8.5282 14.5113 8.5282C15.0713 8.5282 15.5263 8.9832 15.5263 9.55486C15.5263 10.1137 15.0713 10.5699 14.488 10.5699ZM15.5147 18.4099C15.5147 18.9699 15.0597 19.4249 14.488 19.4249C13.928 19.4249 13.473 18.9699 13.473 18.4099V13.2532C13.473 12.692 13.928 12.2265 14.488 12.2265C15.0597 12.2265 15.5147 12.692 15.5147 13.2532V18.4099Z" fill="#7AAC5C"/>
</svg>
