<svg width="21" height="21" viewBox="0 0 21 21" fill="none" xmlns="http://www.w3.org/2000/svg">
<g clip-path="url(#clip0_502_1072)">
<path d="M9.36987 10.7084H10.0392C10.2167 10.7084 10.3869 10.6379 10.5124 10.5124C10.6379 10.3869 10.7084 10.2167 10.7084 10.0392C10.7084 9.86165 10.6379 9.69142 10.5124 9.5659C10.3869 9.44039 10.2167 9.36987 10.0392 9.36987H9.36987V10.7084Z" fill="#B3B3B3"/>
<path fill-rule="evenodd" clip-rule="evenodd" d="M1.33862 2.00785C1.33862 1.47534 1.55016 0.964631 1.92671 0.588086C2.30325 0.211541 2.81396 0 3.34647 0L14.3321 0L18.74 4.4079V18.0707C18.74 18.6032 18.5285 19.1139 18.1519 19.4904C17.7754 19.867 17.2647 20.0785 16.7322 20.0785H3.34647C2.81396 20.0785 2.30325 19.867 1.92671 19.4904C1.55016 19.1139 1.33862 18.6032 1.33862 18.0707V2.00785ZM5.35433 9.36997H2.67719V8.0314H6.69289V14.7242H2.67719V12.0471H4.01576V13.3857H5.35433V9.36997ZM8.03146 8.0314H10.0393C10.5718 8.0314 11.0825 8.24295 11.4591 8.61949C11.8356 8.99604 12.0472 9.50674 12.0472 10.0393C12.0472 10.5718 11.8356 11.0825 11.4591 11.459C11.0825 11.8356 10.5718 12.0471 10.0393 12.0471H9.37003V14.7242H8.03146V8.0314ZM13.3857 8.0314H17.4014V9.36997H14.7243V13.3857H16.0629V11.3778H17.4014V14.7242H13.3857V8.0314Z" fill="#B3B3B3"/>
</g>
<defs>
<clipPath id="clip0_502_1072">
<rect width="20.0785" height="20.0785" fill="white"/>
</clipPath>
</defs>
</svg>
