<svg width="38" height="44" viewBox="0 0 38 44" fill="none" xmlns="http://www.w3.org/2000/svg">
<g id="Paper Upload">
<path id="Paper Upload_2" fill-rule="evenodd" clip-rule="evenodd" d="M23.2155 23.9284C23.8376 24.5568 24.8458 24.5568 25.468 23.9284C26.1115 23.3001 26.1115 22.2818 25.4894 21.6534L19.3326 15.4134C19.1825 15.2618 19.0109 15.1534 18.8178 15.0668C18.6247 14.9801 18.4317 14.9368 18.2171 14.9368C18.0026 14.9368 17.7881 14.9801 17.595 15.0668C17.402 15.1534 17.2303 15.2618 17.0802 15.4134L10.9449 21.6534C10.3227 22.2818 10.3227 23.3001 10.9449 23.9284C11.567 24.5568 12.5752 24.5568 13.1973 23.9284L16.6082 20.4618V30.9268C16.6082 31.8151 17.3161 32.5301 18.2171 32.5301C19.0967 32.5301 19.8046 31.8151 19.8046 30.9268V20.4618L23.2155 23.9284ZM34.8776 15.5555C35.3819 15.5497 35.9309 15.5434 36.4298 15.5434C36.9661 15.5434 37.4166 15.9767 37.4166 16.5184V33.9384C37.4166 39.3117 33.0833 43.6667 27.7631 43.6667H10.7087C5.10965 43.6667 0.583252 39.095 0.583252 33.4617V10.105C0.583252 4.73171 4.89513 0.333374 10.2582 0.333374H21.7136C22.2499 0.333374 22.7004 0.788374 22.7004 1.33004V8.30671C22.7004 12.2717 25.9182 15.5217 29.8654 15.5434C30.7677 15.5434 31.5688 15.5502 32.2725 15.5562C32.8235 15.5609 33.3149 15.565 33.7483 15.565C34.0536 15.565 34.4495 15.5605 34.8776 15.5555ZM35.4768 12.3931C33.7134 12.3996 31.6369 12.3931 30.1416 12.378C27.769 12.378 25.8147 10.4041 25.8147 8.00781V2.29647C25.8147 1.36264 26.9345 0.898974 27.576 1.57281C29.2279 3.30605 31.7568 5.96226 33.8942 8.20737C34.76 9.11681 35.5617 9.95879 36.2147 10.6446C36.839 11.3011 36.3799 12.391 35.4768 12.3931Z" fill="#7AAC5C"/>
</g>
</svg>
