<svg width="234" height="27" viewBox="0 0 234 27" fill="none" xmlns="http://www.w3.org/2000/svg">
<path d="M0 0H4.59724V20.6286H0V0Z" fill="black"/>
<path d="M9.49907 5.74655H13.8016C13.7623 6.31629 13.6641 6.83692 13.5069 7.30843C13.3694 7.77994 13.1336 8.30057 12.7997 8.87031L14.0079 9.51864C14.5973 8.1434 15.3242 7.12179 16.1886 6.45381C17.0727 5.78584 18.1238 5.45185 19.3419 5.45185C21.0118 5.45185 22.3085 6.04124 23.2318 7.22002C24.1552 8.3988 24.6169 10.0393 24.6169 12.1414V20.6286H20.2554V12.9076C20.2554 11.6896 19.9804 10.7662 19.4303 10.1375C18.8998 9.48917 18.114 9.16501 17.0727 9.16501C16.0315 9.16501 15.2358 9.48917 14.6857 10.1375C14.1356 10.7662 13.8606 11.6896 13.8606 12.9076V20.6286H9.49907V5.74655Z" fill="black"/>
<path d="M27.0272 5.74655H31.7423C32.6657 7.92729 33.3337 9.61687 33.7462 10.8153C34.1784 11.9941 34.4731 13.0255 34.6303 13.9096C34.8071 14.774 34.9152 15.8055 34.9545 17.0039H36.3395C36.3788 15.8055 36.4771 14.774 36.6342 13.9096C36.8111 13.0255 37.1057 11.9941 37.5183 10.8153C37.9505 9.61687 38.6283 7.92729 39.5517 5.74655H44.2668L38.0782 20.6286H33.2158L27.0272 5.74655Z" fill="black"/>
<path d="M54.3537 21.0117C52.7623 21.0117 51.3281 20.6777 50.0511 20.0098C48.7938 19.3222 47.8016 18.389 47.0747 17.2102C46.3675 16.0314 46.0138 14.6954 46.0138 13.2023C46.0138 11.7092 46.3675 10.3733 47.0747 9.19448C47.8016 7.99605 48.8036 7.06285 50.0806 6.39488C51.3576 5.7269 52.7918 5.39291 54.3831 5.39291C55.9941 5.39291 57.4382 5.73672 58.7152 6.42435C59.9922 7.09232 60.9843 8.02552 61.6916 9.22394C62.3988 10.4027 62.7525 11.7387 62.7525 13.2318C62.7525 13.664 62.723 14.1061 62.6641 14.5579H50.2574C50.4539 15.5009 50.9156 16.2573 51.6425 16.8271C52.389 17.3968 53.2928 17.6817 54.3537 17.6817C55.1395 17.6817 55.8468 17.5343 56.4755 17.2396C57.1042 16.9253 57.615 16.4833 58.0079 15.9135H62.3399C61.7505 17.4852 60.7387 18.7328 59.3046 19.6561C57.89 20.5599 56.2397 21.0117 54.3537 21.0117ZM58.5678 11.8762C58.3517 10.8939 57.8704 10.1179 57.1238 9.54811C56.3773 8.97837 55.4637 8.69349 54.3831 8.69349C53.3026 8.69349 52.389 8.98819 51.6425 9.57758C50.9156 10.1473 50.4441 10.9135 50.228 11.8762H58.5678Z" fill="black"/>
<path d="M66.5881 5.74655H70.7138C70.6942 6.33594 70.6058 6.9155 70.4486 7.48525C70.3111 8.03534 70.0753 8.70332 69.7413 9.48917L71.0969 10.0786C71.5881 8.5265 72.2266 7.41648 73.0125 6.74851C73.818 6.08054 74.9083 5.74655 76.2836 5.74655C76.6961 5.74655 77.0105 5.75637 77.2266 5.77602V9.8428C76.6372 9.80351 76.2148 9.78386 75.9594 9.78386C74.152 9.78386 72.8651 10.1866 72.0989 10.9921C71.3327 11.7976 70.9496 13.1139 70.9496 14.941V20.6286H66.5881V5.74655Z" fill="black"/>
<path d="M86.3946 21.0117C84.2728 21.0117 82.593 20.5599 81.3553 19.6561C80.1176 18.7328 79.4987 17.4754 79.4987 15.884H83.6539C83.6539 16.4931 83.8897 16.9744 84.3612 17.3281C84.8327 17.662 85.5007 17.829 86.3651 17.829C87.1117 17.829 87.6912 17.7013 88.1038 17.4459C88.536 17.1905 88.7522 16.8271 88.7522 16.3556C88.7522 15.8251 88.4771 15.442 87.927 15.2062C87.3966 14.9705 86.5419 14.7347 85.3632 14.499C84.1844 14.2632 83.2119 14.0176 82.4457 13.7622C81.6991 13.5068 81.0508 13.0844 80.5007 12.4951C79.9703 11.886 79.705 11.0609 79.705 10.0196C79.705 8.48721 80.2944 7.3379 81.4732 6.57169C82.652 5.78584 84.1549 5.39291 85.982 5.39291C87.9663 5.39291 89.5576 5.84478 90.7561 6.74851C91.9545 7.63259 92.5635 8.8212 92.5832 10.3143H88.5164C88.4967 9.76422 88.261 9.332 87.8091 9.01766C87.3769 8.68367 86.7777 8.51668 86.0115 8.51668C85.3632 8.51668 84.8425 8.64438 84.4496 8.89978C84.0567 9.13554 83.8602 9.46952 83.8602 9.90174C83.8602 10.4125 84.1254 10.7858 84.6559 11.0216C85.206 11.2377 86.0704 11.4636 87.2492 11.6994C88.4476 11.9351 89.4299 12.1807 90.1962 12.4361C90.982 12.6915 91.65 13.1237 92.2001 13.7328C92.7698 14.3418 93.0547 15.167 93.0547 16.2082C93.0547 17.6817 92.4555 18.8506 91.2571 19.7151C90.0586 20.5795 88.4378 21.0117 86.3946 21.0117Z" fill="black"/>
<path d="M104.449 21.0117C102.858 21.0117 101.424 20.6777 100.147 20.0098C98.8896 19.3222 97.8974 18.389 97.1705 17.2102C96.4632 16.0314 96.1096 14.6954 96.1096 13.2023C96.1096 11.7092 96.4632 10.3733 97.1705 9.19448C97.8974 7.99605 98.8994 7.06285 100.176 6.39488C101.453 5.7269 102.888 5.39291 104.479 5.39291C106.09 5.39291 107.534 5.73672 108.811 6.42435C110.088 7.09232 111.08 8.02552 111.787 9.22394C112.495 10.4027 112.848 11.7387 112.848 13.2318C112.848 13.664 112.819 14.1061 112.76 14.5579H100.353C100.55 15.5009 101.011 16.2573 101.738 16.8271C102.485 17.3968 103.389 17.6817 104.449 17.6817C105.235 17.6817 105.943 17.5343 106.571 17.2396C107.2 16.9253 107.711 16.4833 108.104 15.9135H112.436C111.846 17.4852 110.835 18.7328 109.4 19.6561C107.986 20.5599 106.336 21.0117 104.449 21.0117ZM108.664 11.8762C108.448 10.8939 107.966 10.1179 107.22 9.54811C106.473 8.97837 105.559 8.69349 104.479 8.69349C103.398 8.69349 102.485 8.98819 101.738 9.57758C101.011 10.1473 100.54 10.9135 100.324 11.8762H108.664Z" fill="black"/>
<path d="M128.279 20.9823C126.628 20.9823 125.312 20.5992 124.33 19.833C123.367 19.0471 122.886 17.996 122.886 16.6797C122.886 15.4224 123.308 14.3909 124.153 13.5854C124.998 12.7799 126.157 12.2986 127.63 12.1414L132.375 11.6699C132.945 11.611 133.387 11.4538 133.701 11.1984C134.035 10.9234 134.202 10.5795 134.202 10.167C134.202 9.67581 133.956 9.29271 133.465 9.01766C132.974 8.74261 132.286 8.60509 131.402 8.60509C130.459 8.60509 129.683 8.7819 129.074 9.13554C128.485 9.46952 128.112 9.96068 127.954 10.609H123.652C123.966 8.95872 124.791 7.68171 126.127 6.77798C127.483 5.8546 129.222 5.39291 131.343 5.39291C133.642 5.39291 135.41 5.94301 136.648 7.0432C137.905 8.12375 138.534 9.67581 138.534 11.6994V15.8251C138.534 16.3556 138.671 16.7092 138.946 16.886C139.222 17.0432 139.762 17.0923 140.567 17.0334V20.6286C140.076 20.6876 139.614 20.717 139.182 20.717C136.982 20.717 135.882 19.9607 135.882 18.4479C135.882 18.0353 135.95 17.6129 136.088 17.1807L134.85 16.7681C134.3 18.1237 133.455 19.165 132.316 19.8919C131.196 20.6188 129.85 20.9823 128.279 20.9823ZM129.428 17.7996C130.646 17.7996 131.717 17.4165 132.64 16.6503C133.583 15.884 134.3 14.8035 134.791 13.4086L133.701 12.7898C133.347 13.3006 132.954 13.6837 132.522 13.9391C132.09 14.1748 131.501 14.3418 130.754 14.44L129.133 14.6463C128.504 14.7249 128.013 14.9116 127.66 15.2062C127.326 15.5009 127.159 15.8742 127.159 16.3261C127.159 16.778 127.355 17.1414 127.748 17.4165C128.141 17.6719 128.701 17.7996 129.428 17.7996Z" fill="#7AAC5C"/>
<path d="M151.844 20.9233C150.174 20.884 148.69 20.5402 147.394 19.8919C146.117 19.2436 145.124 18.3398 144.417 17.1807C143.71 16.0216 143.356 14.6954 143.356 13.2023C143.356 11.7092 143.71 10.3831 144.417 9.22394C145.124 8.06481 146.117 7.16108 147.394 6.51275C148.69 5.84478 150.174 5.49115 151.844 5.45185V0H155.969V5.45185C157.639 5.49115 159.113 5.84478 160.39 6.51275C161.686 7.16108 162.688 8.06481 163.396 9.22394C164.122 10.3831 164.486 11.7092 164.486 13.2023C164.486 14.6954 164.122 16.0216 163.396 17.1807C162.688 18.3202 161.686 19.2239 160.39 19.8919C159.113 20.5402 157.639 20.884 155.969 20.9233V26.3752H151.844V20.9233ZM147.6 13.2023C147.6 14.4204 147.983 15.4027 148.749 16.1493C149.535 16.8762 150.616 17.2691 151.991 17.3281V9.0766C150.616 9.11589 149.535 9.50882 148.749 10.2554C147.983 10.9823 147.6 11.9646 147.6 13.2023ZM155.822 17.3281C157.177 17.2691 158.248 16.8762 159.034 16.1493C159.82 15.4224 160.213 14.44 160.213 13.2023C160.213 11.9646 159.82 10.9823 159.034 10.2554C158.248 9.50882 157.177 9.11589 155.822 9.0766V17.3281Z" fill="#7AAC5C"/>
<path d="M178.797 20.6286C178.836 18.8015 178.895 17.3772 178.974 16.3556C179.072 15.3143 179.239 14.3811 179.475 13.556C179.71 12.7308 180.074 11.7289 180.565 10.5501L179.268 10.0196C178.463 11.8074 177.598 13.4479 176.675 14.941C175.752 16.4145 174.406 18.3104 172.638 20.6286H168.276V5.74655H172.608C172.569 7.57365 172.5 9.00784 172.402 10.0491C172.323 11.0707 172.166 11.9941 171.93 12.8192C171.695 13.6444 171.331 14.6365 170.84 15.7956L172.137 16.3556C172.962 14.5677 173.836 12.9371 174.759 11.4636C175.683 9.9705 177.019 8.06481 178.767 5.74655H183.129V20.6286H178.797Z" fill="#7AAC5C"/>
<path d="M187.795 5.74655H192.127V16.7976H198.021V5.74655H202.294V16.7976H208.188V5.74655H212.549V20.6286H187.795V5.74655Z" fill="#7AAC5C"/>
<path d="M221.693 20.9823C220.043 20.9823 218.727 20.5992 217.744 19.833C216.782 19.0471 216.3 17.996 216.3 16.6797C216.3 15.4224 216.723 14.3909 217.568 13.5854C218.412 12.7799 219.572 12.2986 221.045 12.1414L225.79 11.6699C226.359 11.611 226.801 11.4538 227.116 11.1984C227.45 10.9234 227.617 10.5795 227.617 10.167C227.617 9.67581 227.371 9.29271 226.88 9.01766C226.389 8.74261 225.701 8.60509 224.817 8.60509C223.874 8.60509 223.098 8.7819 222.489 9.13554C221.9 9.46952 221.526 9.96068 221.369 10.609H217.067C217.381 8.95872 218.206 7.68171 219.542 6.77798C220.898 5.8546 222.636 5.39291 224.758 5.39291C227.057 5.39291 228.825 5.94301 230.063 7.0432C231.32 8.12375 231.949 9.67581 231.949 11.6994V15.8251C231.949 16.3556 232.086 16.7092 232.361 16.886C232.636 17.0432 233.177 17.0923 233.982 17.0334V20.6286C233.491 20.6876 233.029 20.717 232.597 20.717C230.397 20.717 229.296 19.9607 229.296 18.4479C229.296 18.0353 229.365 17.6129 229.503 17.1807L228.265 16.7681C227.715 18.1237 226.87 19.165 225.731 19.8919C224.611 20.6188 223.265 20.9823 221.693 20.9823ZM222.843 17.7996C224.061 17.7996 225.131 17.4165 226.055 16.6503C226.998 15.884 227.715 14.8035 228.206 13.4086L227.116 12.7898C226.762 13.3006 226.369 13.6837 225.937 13.9391C225.505 14.1748 224.915 14.3418 224.169 14.44L222.548 14.6463C221.919 14.7249 221.428 14.9116 221.074 15.2062C220.74 15.5009 220.573 15.8742 220.573 16.3261C220.573 16.778 220.77 17.1414 221.163 17.4165C221.556 17.6719 222.116 17.7996 222.843 17.7996Z" fill="#7AAC5C"/>
</svg>
